HIERARCHY
ROOT Hips
{
	OFFSET -0.001795 -0.223333 0.028219
	CHANNELS 6 Xposition Yposition Zposition Zrotation Yrotation Xrotation 
	JOINT LeftUpLeg
	{
		OFFSET 0.069520 -0.091406 -0.006815
		CHANNELS 3 Zrotation Yrotation Xrotation
		JOINT LeftLeg
		{
			OFFSET 0.034277 -0.375199 -0.004496
			CHANNELS 3 Zrotation Yrotation Xrotation
			JOINT LeftFoot
			{
				OFFSET -0.013596 -0.397961 -0.043693
				CHANNELS 3 Zrotation Yrotation Xrotation
				JOINT LeftToe
				{
					OFFSET 0.026358 -0.055791 0.119288
					CHANNELS 3 Zrotation Yrotation Xrotation
					End Site
					{
						OFFSET 0.000000 0.000000 0.000000
					}
				}
			}
		}
	}
	JOINT RightUpLeg
	{
		OFFSET -0.067670 -0.090522 -0.004320
		CHANNELS 3 Zrotation Yrotation Xrotation
		JOINT RightLeg
		{
			OFFSET -0.038290 -0.382569 -0.008850
			CHANNELS 3 Zrotation Yrotation Xrotation
			JOINT RightFoot
			{
				OFFSET 0.015774 -0.398415 -0.042312
				CHANNELS 3 Zrotation Yrotation Xrotation
				JOINT RightToe
				{
					OFFSET -0.025372 -0.048144 0.123348
					CHANNELS 3 Zrotation Yrotation Xrotation
					End Site
					{
						OFFSET 0.000000 0.000000 0.000000
					}
				}
			}
		}
	}
	JOINT Spine
	{
		OFFSET -0.002533 0.108963 -0.026696
		CHANNELS 3 Zrotation Yrotation Xrotation
		JOINT Spine1
		{
			OFFSET 0.005487 0.135180 0.001092
			CHANNELS 3 Zrotation Yrotation Xrotation
			JOINT Spine2
			{
				OFFSET 0.001457 0.052922 0.025425
				CHANNELS 3 Zrotation Yrotation Xrotation
				JOINT Neck
				{
					OFFSET -0.002778 0.213870 -0.042857
					CHANNELS 3 Zrotation Yrotation Xrotation
					JOINT Head
					{
						OFFSET 0.005152 0.064970 0.051349
						CHANNELS 3 Zrotation Yrotation Xrotation
						End Site
						{
							OFFSET 0.000000 0.000000 0.000000
						}
					}
				}
				JOINT LeftShoulder
				{
					OFFSET 0.078845 0.121749 -0.034090
					CHANNELS 3 Zrotation Yrotation Xrotation
					JOINT LeftArm
					{
						OFFSET 0.090977 0.030469 -0.008868
						CHANNELS 3 Zrotation Yrotation Xrotation
						JOINT LeftForeArm
						{
							OFFSET 0.259612 -0.012772 -0.027456
							CHANNELS 3 Zrotation Yrotation Xrotation
							JOINT LeftHand
							{
								OFFSET 0.249234 0.008986 -0.001171
								CHANNELS 3 Zrotation Yrotation Xrotation
								End Site
								{
									OFFSET 0.000000 0.000000 0.000000
								}
							}
						}
					}
				}
				JOINT RightShoulder
				{
					OFFSET -0.081759 0.118833 -0.038615
					CHANNELS 3 Zrotation Yrotation Xrotation
					JOINT RightArm
					{
						OFFSET -0.096012 0.032551 -0.009143
						CHANNELS 3 Zrotation Yrotation Xrotation
						JOINT RightForeArm
						{
							OFFSET -0.253742 -0.013329 -0.021401
							CHANNELS 3 Zrotation Yrotation Xrotation
							JOINT RightHand
							{
								OFFSET -0.255298 0.007772 -0.005559
								CHANNELS 3 Zrotation Yrotation Xrotation
								End Site
								{
									OFFSET 0.000000 0.000000 0.000000
								}
							}
						}
					}
				}
			}
		}
	}
}
MOTION
Frames: 17
Frame Time: 0.05000000
0.000000 0.809059 0.000000 3.602416 -5.663306 22.739566 7.520834 -0.878522 -65.339164 -13.054701 5.360831 37.514450 8.291978 21.103808 -19.541243 0.000000 0.000000 0.000000 -3.608767 1.319214 -9.068688 8.592655 -0.804537 9.785671 -8.234390 -5.511790 -47.059749 0.000000 0.000000 0.000000 -5.078840 0.850346 -22.664503 1.618101 0.037897 -18.590959 2.244362 2.633693 41.044055 3.128286 0.927922 -33.622582 0.000000 0.000000 0.000000 13.087672 11.556303 -2.072438 -85.193085 1.622678 -13.116479 -36.153866 -39.696174 16.824791 0.000000 0.000000 0.000000 -19.928179 -4.733600 -0.782639 92.664923 3.812952 -3.321530 22.358556 49.011405 13.916857 0.000000 0.000000 0.000000 
-0.021295 0.797602 0.879271 3.237024 -9.411541 24.683149 8.354495 0.551270 -70.489679 -13.337158 5.403009 34.347803 7.604153 18.976463 -12.619020 0.000000 0.000000 0.000000 -4.317116 1.296391 -5.746601 9.128685 -0.607105 5.987647 -8.630918 -3.466438 -46.769361 0.000000 0.000000 0.000000 -5.151644 0.922164 -24.423821 1.318024 0.084194 -18.298830 2.649021 3.587710 41.219050 2.283136 1.318034 -34.527449 0.000000 0.000000 0.000000 11.396475 12.393176 -2.634573 -84.070787 3.892544 -14.249222 -35.062177 -39.812295 16.497707 0.000000 0.000000 0.000000 -19.639043 -4.150963 -0.555936 91.830120 3.724587 -3.921481 28.376933 49.782036 17.200484 0.000000 0.000000 0.000000 
-0.097231 0.787921 1.931113 3.833631 -12.050399 25.028965 8.465839 1.320914 -72.043911 -15.296849 6.606808 34.717586 7.965089 20.093305 -11.525309 0.000000 0.000000 0.000000 -5.517546 1.510901 -5.278820 6.354172 -0.394724 9.569464 -9.308073 -3.824213 -48.666584 0.000000 0.000000 0.000000 -6.177471 0.920366 -25.089134 1.098446 0.118560 -18.024248 2.809422 4.461104 40.487966 1.997220 1.562418 -36.220211 0.000000 0.000000 0.000000 11.593801 12.514073 -2.633427 -82.767514 5.741550 -15.328106 -34.989448 -38.757362 15.975506 0.000000 0.000000 0.000000 -19.070675 -4.696901 -0.635368 91.361072 5.021513 -2.793405 32.216469 54.529817 21.461943 0.000000 0.000000 0.000000 
-0.232772 0.781906 3.199727 4.420220 -14.795747 27.614113 6.682149 1.023070 -75.164903 -14.390610 7.279964 40.349513 7.267996 17.667208 -9.865913 0.000000 0.000000 0.000000 -7.438833 1.993282 -6.783305 7.302644 -0.622242 15.499533 -8.971898 -2.097119 -45.693644 0.000000 0.000000 0.000000 -8.931522 0.896111 -28.347050 1.516171 0.002372 -17.915791 2.373452 3.463648 40.822104 2.226996 1.300956 -36.346963 0.000000 0.000000 0.000000 9.954605 12.865311 -3.078430 -81.975077 5.651068 -14.260823 -31.037211 -39.150818 14.750220 0.000000 0.000000 0.000000 -18.133356 -4.053009 -0.335439 93.381039 5.723471 -2.903652 27.987506 55.931813 19.765879 0.000000 0.000000 0.000000 
-0.429259 0.787835 4.614966 5.008359 -16.920601 28.113088 4.547531 0.039979 -74.298413 -12.995848 7.673923 46.027935 7.227862 17.148546 -12.491825 0.000000 0.000000 0.000000 -8.914840 2.280920 -11.405363 8.370531 -1.148066 29.705392 -8.171964 -3.783487 -39.467193 0.000000 0.000000 0.000000 -10.753581 0.842246 -29.268622 1.299839 0.054982 -17.901260 1.730404 3.213234 40.700008 2.144349 1.255299 -36.655626 0.000000 0.000000 0.000000 11.191413 11.625423 -2.657360 -81.140396 4.353443 -12.606594 -28.388953 -37.617863 13.120906 0.000000 0.000000 0.000000 -19.193978 -4.463381 -0.186105 95.723841 4.703284 -4.351418 26.997359 54.923742 18.727892 0.000000 0.000000 0.000000 
-0.663064 0.797404 6.004534 5.045314 -19.893808 26.710038 2.658234 -0.851972 -68.130004 -11.354482 7.454819 47.188064 6.776602 15.353702 -18.112747 0.000000 0.000000 0.000000 -11.513895 2.420201 -21.737383 12.738238 -3.457384 53.024799 -5.548286 -7.512866 -20.284274 0.000000 0.000000 0.000000 -11.193847 0.844051 -28.277820 0.815128 0.160607 -17.955372 1.129333 2.738764 40.854716 3.001323 0.503767 -35.440311 0.000000 0.000000 0.000000 11.310748 10.273412 -2.623135 -80.388414 3.480591 -10.765640 -27.755592 -37.458828 12.969624 0.000000 0.000000 0.000000 -18.669754 -4.398202 0.217978 95.216453 4.205509 -6.818921 30.985688 54.301350 20.517646 0.000000 0.000000 0.000000 
-0.958420 0.810317 7.331321 4.904492 -21.404122 24.836167 0.345288 -2.216445 -57.702989 -8.360976 5.464663 43.239406 6.186741 13.077724 -27.050455 0.000000 0.000000 0.000000 -12.035304 2.437198 -36.038794 16.725416 -7.226499 74.406589 -5.175888 -14.874481 -3.527212 0.000000 0.000000 0.000000 -10.463865 0.879363 -25.980498 0.864795 0.123292 -17.896395 -0.492366 1.042361 40.856630 2.961001 0.099358 -35.673193 0.000000 0.000000 0.000000 11.343210 8.291555 -2.584111 -80.817827 1.050440 -7.408250 -23.072485 -39.156573 11.910434 0.000000 0.000000 0.000000 -18.180529 -4.764043 0.721928 93.150775 3.569645 -10.211175 36.655845 51.891779 22.130911 0.000000 0.000000 0.000000 
-1.348621 0.820435 8.646009 4.564324 -22.891558 24.564715 -0.266815 -2.513570 -48.586271 -7.275726 4.218652 36.449899 5.576557 10.993587 -33.970191 0.000000 0.000000 0.000000 -13.733125 2.602600 -49.291581 21.767931 -12.597448 79.535489 -7.570307 -22.430800 -1.917223 0.000000 0.000000 0.000000 -9.036192 0.926271 -25.534168 0.998998 0.075936 -18.090685 -2.623764 -1.532307 41.312747 2.776338 -0.370054 -35.853591 0.000000 0.000000 0.000000 11.532144 7.714595 -3.020545 -82.649317 -1.406753 -3.204777 -17.380769 -41.188223 10.579206 0.000000 0.000000 0.000000 -17.586822 -5.962416 1.165863 91.800917 1.870884 -14.966392 41.206254 48.232416 22.223534 0.000000 0.000000 0.000000 
-1.847488 0.827568 9.976574 4.004208 -24.583212 24.026448 0.260187 -2.369772 -39.083259 -8.586123 3.973651 28.761787 4.936328 9.298471 -39.004398 0.000000 0.000000 0.000000 -16.421526 2.343825 -59.518637 25.831458 -15.058931 73.265266 -8.653614 -26.687544 -6.230258 0.000000 0.000000 0.000000 -7.500662 0.957862 -25.136334 0.954528 0.056625 -17.944918 -4.453247 -4.093298 41.081033 1.768018 -0.521354 -35.575591 0.000000 0.000000 0.000000 11.503565 7.544192 -3.555360 -85.064563 -3.200160 0.974728 -11.465894 -44.571827 9.328760 0.000000 0.000000 0.000000 -17.180729 -8.342524 1.366115 91.796802 -2.197149 -21.930870 45.450812 43.139906 21.062858 0.000000 0.000000 0.000000 
-2.462778 0.826022 11.293138 3.022983 -24.480650 23.055467 2.117585 -2.013776 -30.299430 -9.326074 3.562069 23.493274 4.581363 5.947739 -43.527827 0.000000 0.000000 0.000000 -19.696928 1.163224 -66.298967 28.548458 -14.889924 61.212367 -9.259291 -30.398805 -8.564901 0.000000 0.000000 0.000000 -5.548133 0.942891 -23.442624 1.169331 -0.004287 -18.121081 -6.725770 -7.137378 40.951669 0.668869 -0.702648 -34.504871 0.000000 0.000000 0.000000 12.487341 6.726090 -3.961342 -89.814441 -6.956285 7.970436 -0.187249 -48.364862 5.299995 0.000000 0.000000 0.000000 -17.148457 -9.853662 1.677307 90.097673 -5.395961 -27.126493 47.980647 37.486986 18.406935 0.000000 0.000000 0.000000 
-3.185336 0.815417 12.600147 2.657053 -25.960128 21.762822 2.007671 -1.783181 -20.678153 -7.743056 2.343365 17.721903 4.387205 3.643495 -47.954488 0.000000 0.000000 0.000000 -21.133413 0.818308 -70.069214 26.891137 -10.429212 46.684191 -9.343255 -33.339437 -10.651298 0.000000 0.000000 0.000000 -4.699620 0.895804 -21.783019 1.083451 0.011968 -18.401980 -7.244724 -8.409703 40.417352 1.185070 -1.250586 -34.398855 0.000000 0.000000 0.000000 12.958378 4.272714 -3.668511 -92.533029 -13.728008 16.724436 11.703201 -47.227059 0.037805 0.000000 0.000000 0.000000 -17.279124 -10.419427 1.973133 89.735612 -8.025951 -30.947088 45.146090 33.802501 15.046163 0.000000 0.000000 0.000000 
-4.015950 0.797744 13.886015 2.257386 -27.487117 22.004235 1.968955 -1.304847 -12.163617 -7.687437 1.772916 11.987271 4.386545 1.994637 -51.800746 0.000000 0.000000 0.000000 -23.991338 -0.293324 -71.687149 23.954120 -6.083638 29.223905 -9.409480 -36.333595 -11.186651 0.000000 0.000000 0.000000 -3.694140 0.916677 -21.879318 1.150498 -0.014442 -18.542290 -8.040454 -10.275474 40.631349 1.549987 -1.740491 -34.998644 0.000000 0.000000 0.000000 12.562080 2.298646 -3.396716 -93.215224 -19.034106 23.841308 20.008767 -48.963464 -3.424993 0.000000 0.000000 0.000000 -16.389603 -10.433499 2.103601 87.455584 -8.827934 -32.134879 41.411273 33.003731 12.863222 0.000000 0.000000 0.000000 
-5.005645 0.778953 15.205635 3.039412 -28.890507 20.916943 2.666064 -0.557452 -3.955636 -6.505712 1.235209 8.281402 4.329223 -1.920750 -52.622922 0.000000 0.000000 0.000000 -27.386366 -1.628198 -71.191634 19.768475 -3.288809 17.017737 -10.171853 -37.362869 -7.158316 0.000000 0.000000 0.000000 -3.158852 0.892451 -21.115763 1.460470 -0.092307 -18.831687 -8.307494 -11.971195 40.509773 1.872462 -2.091456 -35.786024 0.000000 0.000000 0.000000 12.975841 0.908170 -3.315218 -95.260904 -22.747331 30.381547 28.356485 -52.094297 -7.712893 0.000000 0.000000 0.000000 -15.566584 -10.221790 2.181367 85.360748 -9.759060 -33.100387 36.634805 31.255357 10.235266 0.000000 0.000000 0.000000 
-6.253220 0.771687 16.585056 2.643434 -32.118162 18.841817 4.334819 0.488228 4.962330 -5.361569 1.002744 7.292708 3.715873 -4.685758 -50.800648 0.000000 0.000000 0.000000 -27.266498 -0.720429 -71.771086 20.795186 -3.666241 19.498544 -11.277203 -40.050349 -5.718155 0.000000 0.000000 0.000000 -1.563326 0.802150 -18.912829 1.855605 -0.215904 -19.060664 -7.766744 -12.323775 40.008238 2.447201 -2.490760 -36.471313 0.000000 0.000000 0.000000 12.913596 1.098455 -3.589789 -95.895051 -23.611699 33.083140 32.902377 -55.345215 -10.600729 0.000000 0.000000 0.000000 -15.891178 -8.997512 2.878982 84.707756 -8.461563 -33.277551 31.188615 31.110353 8.405009 0.000000 0.000000 0.000000 
-7.781095 0.775148 17.985115 2.197380 -35.172831 21.532706 7.134157 0.193211 4.666292 -5.519539 1.453608 12.417824 2.076541 -6.607140 -44.849886 0.000000 0.000000 0.000000 -29.323372 -1.283458 -75.525696 25.899395 -6.304752 27.427593 -12.351736 -40.988158 1.767419 0.000000 0.000000 0.000000 -0.329320 1.093462 -22.774548 1.837201 -0.205447 -19.294541 -7.817995 -13.477194 40.292775 2.570192 -2.856103 -36.413242 0.000000 0.000000 0.000000 13.869297 2.458052 -4.495288 -96.384277 -19.798723 31.929656 33.086798 -60.052517 -11.690974 0.000000 0.000000 0.000000 -16.223292 -8.528588 3.475607 83.789570 -7.478264 -33.357902 29.801450 31.000598 7.773038 0.000000 0.000000 0.000000 
-9.422191 0.792999 19.237854 0.763070 -38.846504 22.927284 7.721158 -0.514261 -1.773918 -2.575878 3.135750 29.981087 0.179423 -7.470025 -32.254869 0.000000 0.000000 0.000000 -28.955814 -0.149684 -76.610751 31.022959 -8.887563 33.474700 -14.656036 -42.653807 9.059034 0.000000 0.000000 0.000000 1.527773 1.337729 -24.285904 2.103398 -0.305383 -19.111163 -6.796744 -13.218738 39.704113 2.811440 -3.074860 -36.671110 0.000000 0.000000 0.000000 14.008825 3.248590 -4.913720 -95.431251 -16.824168 29.470888 26.304961 -61.427568 -8.091521 0.000000 0.000000 0.000000 -16.851979 -7.684872 4.161236 84.356828 -3.908174 -32.044864 27.101154 29.641194 6.721049 0.000000 0.000000 0.000000 
-10.965717 0.812773 20.233505 0.594826 -44.100143 20.292816 6.215944 -1.044260 -12.564465 6.514920 5.406167 56.967545 -1.747478 -10.108664 -15.993338 0.000000 0.000000 0.000000 -23.797468 3.737679 -70.970965 31.196038 -7.963660 37.885506 -13.012285 -42.726872 0.599252 0.000000 0.000000 0.000000 1.677290 1.016981 -20.312114 2.353442 -0.362437 -19.590000 -4.777716 -10.726730 39.382143 3.328164 -3.248798 -36.738096 0.000000 0.000000 0.000000 13.684511 3.492930 -4.949630 -93.750998 -15.532942 26.902836 15.873705 -58.135583 -2.177712 0.000000 0.000000 0.000000 -16.202044 -5.917833 4.354813 85.374719 -0.225704 -30.002365 23.973377 30.154955 6.082021 0.000000 0.000000 0.000000 
